# xmcd
# 
# Track frame offsets:
#     150
#     20160
#     39855
#     58795
#     74320
#     100260
#     126245
#     143950
#     160805
#     192625
#     208435
#     229915
#     251940
# 
# Disc length: 3501
# 
# Revision: 4
# Processed by: cddbd v1.5.2PL0 Copyright (c) Steve Scherf et al.
# Submitted via: BonkEnc v1.0.8
# 
DISCID=cd0dab0d
DTITLE=vários - vol. 2
DYEAR=1997
DGENRE=Sertanejo
TTITLE0=viola enluarada - vamos dar as mãos e cantar
TTITLE1=eu sou desejo, você é paixão
TTITLE2=mia gioconda - horizonte azul 
TTITLE3=não aprendi dizer adeus  
TTITLE4=preciso ser amado  
TTITLE5=um, dois, três - menina veneno
TTITLE6=você vai ver  
TTITLE7=coração sertanejo  
TTITLE8=estou apaixonado - evidências
TTITLE9=página de amigos  
TTITLE10=luar do sertão  
TTITLE11=romaria -  cálix bento (folclore)
TTITLE12=tema de amigos (instrumental)  
EXTD=YEAR: 1997
EXTT0=
EXTT1=
EXTT2=
EXTT3=
EXTT4=
EXTT5=
EXTT6=
EXTT7=
EXTT8=
EXTT9=
EXTT10=
EXTT11=
EXTT12=
PLAYORDER=
